<svg xmlns="http://www.w3.org/2000/svg" width="73.22" height="20" viewBox="0 0 73.220489 20.000001">
    <path d="M11.12 1.492c0 .813-.68 1.49-1.493 1.49-.813 0-1.49-.677-1.49-1.49C8.137.678 8.813 0 9.627 0c.813 0 1.49.678 1.49 1.492zm-1.493 2.71c-.88 0-1.56.68-1.56 1.56 0 .882.68 1.56 1.56 1.56s1.56-.678 1.56-1.56c0-.88-.68-1.56-1.56-1.56zm0 4.205c-.88 0-1.627.746-1.627 1.627 0 .88.746 1.627 1.627 1.627.88 0 1.627-.74 1.627-1.62 0-.88-.746-1.624-1.627-1.624zm0 4.27c-.88 0-1.56.68-1.56 1.56 0 .882.68 1.56 1.56 1.56s1.56-.678 1.56-1.56c0-.813-.68-1.56-1.56-1.56zm0 4.34c-.813 0-1.49.678-1.49 1.49 0 .815.677 1.493 1.49 1.493.814 0 1.492-.678 1.492-1.492 0-.813-.68-1.49-1.5-1.49zM13.763 4C12.813 4 12 4.814 12 5.763c0 .95.814 1.762 1.763 1.762.95 0 1.762-.813 1.762-1.762 0-.95-.813-1.763-1.762-1.763zm0 4.203c-1.017 0-1.83.814-1.83 1.83 0 1.018.813 1.83 1.83 1.83 1.017 0 1.83-.812 1.83-1.83 0-1.016-.813-1.83-1.83-1.83zm0 4.272c-.95 0-1.763.813-1.763 1.762 0 .95.814 1.763 1.763 1.763.95 0 1.762-.814 1.762-1.763 0-.95-.813-1.762-1.762-1.762zM18.033 8C16.95 8 16 8.88 16 10.034c0 1.085.88 2.034 2.034 2.034 1.152 0 2.034-.882 2.034-2.034C20 8.88 19.118 8 18.034 8zM5.423 4.407c-.744 0-1.354.61-1.354 1.356 0 .745.61 1.356 1.35 1.356.743 0 1.353-.62 1.353-1.36 0-.75-.61-1.36-1.356-1.36zm0 4.203C4.61 8.61 4 9.22 4 10.034c0 .813.61 1.424 1.424 1.424.813 0 1.423-.61 1.423-1.424S6.237 8.61 5.424 8.61zm0 4.27c-.744 0-1.354.612-1.354 1.357 0 .746.61 1.356 1.35 1.356.743 0 1.353-.61 1.353-1.356 0-.745-.61-1.356-1.356-1.356zM1.22 8.815c-.678 0-1.22.542-1.22 1.22 0 .678.542 1.22 1.22 1.22.678 0 1.22-.542 1.22-1.22 0-.678-.542-1.22-1.22-1.22z" class="st0"/>
    <path d="M35.39 7.39c-.136 0-.27.135-.27.27v10.645c0 .136.134.27.27.27h1.288c.136 0 .27-.134.27-.27V7.66c0-.135-.134-.27-.27-.27H35.39zm.678-4.475c-.678 0-1.22.543-1.22 1.22 0 .68.542 1.22 1.22 1.22.678 0 1.22-.54 1.22-1.22 0-.677-.542-1.22-1.22-1.22zM62.712 7.39c-.136 0-.27.135-.27.27v10.645c0 .136.134.27.27.27H64c.136 0 .27-.134.27-.27V7.66c0-.135-.134-.27-.27-.27h-1.288zm.61-4.475c-.678 0-1.22.543-1.22 1.22 0 .68.542 1.22 1.22 1.22.678 0 1.22-.54 1.22-1.22 0-.677-.542-1.22-1.22-1.22zM45.966 9.153c.136 0 .27-.136.27-.272V7.6c0-.135-.134-.27-.27-.27h-2.712V3.26c0-.134-.135-.27-.27-.27h-1.29c-.135 0-.27.136-.27.27v4.07h-1.356c-.136 0-.27.135-.27.27v1.28c0 .137.134.273.27.273h1.356v6.17c0 1.897 1.288 3.118 3.118 3.118h1.356c.136 0 .272-.13.272-.27v-1.29c0-.13-.136-.27-.272-.27h-1.152c-.882 0-1.492-.61-1.492-1.56V9.09h2.712zm26.984 0c.135 0 .27-.136.27-.272V7.6c0-.135-.135-.27-.27-.27h-2.713V3.26c0-.134-.135-.27-.27-.27h-1.29c-.134 0-.27.136-.27.27v4.07H67.05c-.135 0-.27.135-.27.27v1.28c0 .137.135.273.27.273h1.357v6.17c0 1.897 1.288 3.118 3.12 3.118h1.355c.135 0 .27-.13.27-.27v-1.29c0-.13-.135-.27-.27-.27h-1.22c-.882 0-1.492-.61-1.492-1.56V9.09h2.78zm-45.628 0v9.084c0 .136.136.27.27.27h1.29c.135 0 .27-.134.27-.27V9.153h2.984c.135 0 .27-.136.27-.272V7.6c0-.135-.135-.27-.27-.27h-2.983V4.95c0-.95.678-1.627 1.49-1.627h1.493c.135 0 .27-.135.27-.27V1.76c0-.135-.135-.27-.27-.27h-1.424c-1.898 0-3.39 1.56-3.39 3.39v2.44h-1.356c-.135 0-.27.136-.27.27v1.29c0 .135.135.27.27.27h1.356zm31.05-.475c-1.016-1.085-2.44-1.695-3.93-1.695-1.424 0-2.848.61-3.73 1.492v-6.78c0-.136-.135-.27-.27-.27h-1.29c-.134 0-.27.134-.27.27V12.88c0 4.137 2.78 5.967 5.49 5.967 2.714 0 5.494-1.83 5.494-5.966.067-1.62-.475-3.11-1.492-4.2zm-3.93 8.475c-2.71 0-3.73-2.17-3.73-4.204 0-2.51 1.49-4.14 3.73-4.14 2.237 0 3.73 1.69 3.73 4.13-.07 2.033-1.018 4.203-3.73 4.203z" class="st1"/>
</svg>
