<svg xmlns="http://www.w3.org/2000/svg" width="30.1" height="30.1" viewBox="0 0 30.1 30.1">
    <path d="M24.155 10.448H21.76l-3.357 9.207H20.8l3.357-9.207zM15.05 30.1c-.15 0-.298-.003-.447-.007l3.075-8.453h4.233c.746 0 1.56-.57 1.814-1.268l3.338-9.166c.546-1.502-.313-2.728-1.91-2.728h-5.87l-4.927 13.54h-.003l-2.793 7.674C4.93 28.115 0 22.157 0 15.05 0 8.147 4.65 2.328 10.986.557l-2.882 7.92L3.31 21.64h3.192l4.074-11.185h2.397L8.898 21.64h3.19l3.796-10.434c.546-1.502-.315-2.728-1.91-2.728h-2.68l3.08-8.463c.224-.01.45-.015.676-.015C23.362 0 30.1 6.738 30.1 15.05c0 8.312-6.738 15.05-15.05 15.05"/>
</svg>
