<svg xmlns="http://www.w3.org/2000/svg" viewBox="0 0 122.87572 18" width="122.876" height="18">
    <path d="M67.38 8.365s-1.19-.734-1.94-1.027c0 0-2.282-1.06-2.74-1.566 0 0-.895-.847-.374-1.81 0 0 .212-.635 1.158-.635 0 0 1.223.065 1.223 1.076V5.82h4.402v-2.1S69.45.295 63.92.132c0 0-4.336-.294-5.575 2.054 0 0-.49.522-.49 2.33V5.82s-.05 1.52.717 2.497c0 0 .44.636 1.516 1.353 0 0 2.186 1.173 3.506 1.857 0 0 1.32.75 1.158 1.957 0 0-.114 1.24-1.386 1.19 0 0-1.174-.05-1.174-1.272v-1.418h-4.68v2.07S57.387 18 63.404 18c0 0 5.754.114 6.015-4.06v-1.68s.193-2.56-2.04-3.895zM43.4 9.848h-.344L41.654.702h-7.352l-.375 16.71h4.353l.05-12.585h.34l2.316 12.586h4.565l2.286-12.586h.31l.098 12.586h4.37L52.137.62h-7.27M16.09 17.396h4.68l1.712-12.944h.39l1.713 12.944h4.68L26.377.702h-7.4M117.22 8.12v2.478h1.205v2.64c0 1.29-1.11 1.322-1.11 1.322-1.335 0-1.287-1.223-1.287-1.223V4.175c0-.946 1.19-.995 1.19-.995 1.142 0 1.158 1.125 1.158 1.125V5.69h4.402c.147-2.722-.39-3.374-.39-3.374C121.278-.13 117.138 0 117.138 0c-6.36 0-5.66 4.876-5.66 4.876v8.852c.13 4.58 6.39 4.11 6.506 4.11 2.788-.31 3.635-1.19 3.635-1.19.764-.572.98-1.37.98-1.37.224-.457.273-1.94.273-1.94V8.12h-5.657zm-20.282 9.293l-.26-10.206h.194l4.63 10.206h5.2V.62h-4.417l.326 10.223h-.192L97.932.62h-5.347v16.793m-10.63-4.173s.065 1.385-1.206 1.385c0 0-1.34.065-1.34-1.337L79.395.653H74.62V13.19s-.49 4.744 6.194 4.744c0 0 5.82.066 5.82-4.532V.637h-4.662V13.24h-.017zM9.88 8.365S8.69 7.63 7.94 7.338c0 0-2.283-1.06-2.74-1.566 0 0-.896-.847-.374-1.81 0 0 .212-.635 1.157-.635 0 0 1.223.065 1.223 1.076V5.82h4.402l-.016-2.102S11.934.295 6.407.132c0 0-.407-.033-1.027 0 0 0-3.342.18-4.532 2.005 0 .016-.016.016-.016.033 0 0-.49.52-.49 2.33v1.305S.295 7.32 1.06 8.3c0 0 .44.635 1.516 1.353 0 0 2.185 1.173 3.505 1.842 0 0 1.325.75 1.16 1.956 0 0-.112 1.24-1.384 1.19 0 0-1.174-.045-1.174-1.27v-1.42H0v2.075s-.13 3.945 5.886 3.945c0 0 5.755.113 6.015-4.06v-1.647c.02 0 .216-2.56-2.02-3.895z"/>
</svg>
