<?xml version="1.0" encoding="UTF-8" standalone="no"?>
<svg
   xmlns:dc="http://purl.org/dc/elements/1.1/"
   xmlns:cc="http://creativecommons.org/ns#"
   xmlns:rdf="http://www.w3.org/1999/02/22-rdf-syntax-ns#"
   xmlns:svg="http://www.w3.org/2000/svg"
   xmlns="http://www.w3.org/2000/svg"
   xmlns:sodipodi="http://sodipodi.sourceforge.net/DTD/sodipodi-0.dtd"
   xmlns:inkscape="http://www.inkscape.org/namespaces/inkscape"
   height="20"
   width="130.791"
   preserveAspectRatio="xMidYMid"
   viewBox="0 0 13.07909 1.9999999"
   id="svg2"
   version="1.1"
   inkscape:version="0.91 r13725"
   sodipodi:docname="simpson.svg">
  <metadata
     id="metadata7">
    <rdf:RDF>
      <cc:Work
         rdf:about="">
        <dc:format>image/svg+xml</dc:format>
        <dc:type
           rdf:resource="http://purl.org/dc/dcmitype/StillImage" />
        <dc:title></dc:title>
      </cc:Work>
    </rdf:RDF>
  </metadata>
  <sodipodi:namedview
     pagecolor="#ffffff"
     bordercolor="#666666"
     borderopacity="1"
     objecttolerance="10"
     gridtolerance="10"
     guidetolerance="10"
     inkscape:pageopacity="0"
     inkscape:pageshadow="2"
     inkscape:window-width="1920"
     inkscape:window-height="1017"
     id="namedview5"
     showgrid="false"
     inkscape:zoom="2.3549021"
     inkscape:cx="8.9175682"
     inkscape:cy="10"
     inkscape:window-x="1912"
     inkscape:window-y="-8"
     inkscape:window-maximized="1"
     inkscape:current-layer="svg2" />
  <defs
     id="defs4">
    <style
       id="style6">
            .cls-2 { fill: #000; }
        </style>
  </defs>
  <g
     id="g4136"
     transform="matrix(0.02262903,0,0,0.02262903,-0.15888554,-0.25234748)">
    <g
       id="g4138">
      <path
         id="path4140"
         d="m 82.6,22.4 c 0.4,0.4 0,0.7 -0.4,1.1 C 78.6,22 75.3,19.6 71.1,19.5 62.7,18.4 55.2,22 50.5,28.7 48.7,31.2 47.7,34.2 47,37.3 46.4,49.1 46.2,69 46.2,69 34.5,69 22.1,69.1 10.3,68.7 7.9,66.3 8.1,62.7 7.2,59.6 5.8,43.4 12.7,30 25,20.2 37.8,9.7 59.3,8.3 73.9,16.2 c 3,1.6 6.3,3.4 8.7,6.2 z"
         inkscape:connector-curvature="0" />
      <path
         id="path4142"
         d="m 445.8,31.5 c 1.1,3.1 0.9,6.7 0.9,10.2 l -22.1,0 c -0.2,-3.9 0.7,-8.1 -2.7,-10.8 -2.5,-1.5 -6.6,-1.7 -8.7,0.2 -1.1,1.1 -1.6,2.5 -1.3,4.2 0.4,1.6 0.7,3.6 2.7,4.4 8.4,3.1 16.7,6.3 24.9,10.1 8.5,4.2 7.1,14.8 7,23 -0.6,4.9 -2.6,9.6 -7.3,12 -14.1,6.5 -34.5,7 -47.4,-2.5 -4.5,-4.4 -3.2,-11.7 -3.2,-17.9 0,-0.1 21.7,0 21.7,0 0.3,4.2 -0.9,9.2 2.1,12.3 2.4,1.5 5.8,2 8.2,0.4 2.6,-2.4 2.8,-6.4 1.5,-9.5 L 419.4,65 396.6,55.8 c -6.4,-3.5 -8.7,-9.7 -8.5,-16.4 0.6,-5.3 0.4,-10.8 4.8,-14.6 9.3,-6.9 22.3,-6.8 34.1,-5.7 7.7,0.8 16.6,4 18.8,12.4 z"
         inkscape:connector-curvature="0" />
      <path
         id="path4144"
         d="m 582.3,27.2 c 2.7,3.8 2.3,8.8 2.7,13.5 l 0,46.9 -0.7,0.4 -24.3,0 -0.1,-49.6 c -1.6,-3.8 -6.4,-3.8 -10.4,-3.9 -2,0.1 -3.5,-0.2 -4.1,1.6 l -0.1,51.8 c -3.9,0.2 -15.9,-0.1 -23.7,0.1 l -0.4,-0.5 0,-67.9 0.8,-0.6 c 4.5,0 41.2,-0.5 49.2,0.5 4.4,0.9 8.4,3.9 11.1,7.7 z"
         inkscape:connector-curvature="0" />
      <path
         id="path4146"
         d="m 181,29.5 c 1.4,3.7 2.2,8 1.4,12 -6.9,0.3 -14.6,0.3 -21.7,-0.1 -0.9,-4 0.4,-8.7 -3.4,-11.1 -2.2,-0.9 -5.1,-0.9 -7.3,-0.2 -1.8,1.1 -2.4,3.1 -2,4.9 0,2 1.3,3.6 2.9,4.6 9.1,4.2 18.9,6.6 27.5,12.3 6,5.3 4,14.4 3.9,22.1 -0.6,5.1 -4.2,9.8 -9.2,11.8 -12.8,4.9 -29.7,4.3 -42.1,-1.4 -7.8,-3.7 -6.2,-12.8 -6.3,-20.4 l 0.5,-0.2 20.8,-0.3 0.4,0.4 c 0.9,4.7 -1.3,11.5 4,13.9 1.8,0.7 4.6,0.7 6.4,-0.3 1.8,-1.5 2.2,-3.8 2.2,-6.2 0.2,-2.6 -1.3,-4.6 -3.3,-6 -7.8,-3.7 -16,-6.6 -24,-10.1 -7.5,-4.6 -7.4,-13.7 -6.7,-21.7 0.6,-4.7 4.2,-8.9 8.4,-10.9 10.6,-4.7 24.8,-4.5 36.1,-1.7 4.7,0.9 9.7,3.8 11.5,8.6 z"
         inkscape:connector-curvature="0" />
      <path
         id="path4148"
         d="m 313.1,23.9 c 5.4,6 3.3,15.2 3.8,23 l -0.1,40.8 c 0,0 -23.7,0 -23.7,0.1 L 293,38 c -0.5,-1.8 -2.4,-2.9 -4.1,-3.5 -2.5,-0.5 -6.3,-1.3 -8,1.1 l 0.1,52.2 c -7.8,0.3 -15.8,-0.1 -23.8,0 l -0.4,-0.6 0,-49.1 c -0.6,-2.4 -2.2,-3 -3.9,-3.6 -1.7,-0.4 -5.5,-1.3 -7.7,1.2 l -0.1,51.6 0,0.5 -22.8,0.1 -0.5,-0.5 -0.1,-68 c 0,0 37.1,-0.5 40.3,0.1 3.2,0.6 5.8,2 8.6,3.5 2.2,-0.7 3.6,-2.2 6.2,-3.1 5.9,-2.1 23.9,-0.7 27.5,-0.3 3.3,0.9 6.5,1.8 8.8,4.3 z"
         inkscape:connector-curvature="0" />
      <path
         id="path4150"
         d="m 212.3,20.1 0.2,67.4 -0.9,0.5 -22.7,0 -0.7,-0.4 0.1,-67.8 0.9,-0.4 c 7.7,0 15.2,0.1 22.7,0.1 l 0.4,0.6 z"
         inkscape:connector-curvature="0" />
      <path
         id="path4152"
         d="m 374.9,19.7 c 3.1,0.9 6,2.9 7.8,5.7 2.2,5.1 1.6,11.1 1.9,17 -0.9,8.7 2.3,20.6 -7.6,24.6 -8.6,2 -27,1.3 -27.5,1.5 -0.5,0.2 -0.9,1.6 -0.9,1.1 0,-0.5 0.1,18.4 0.1,18.4 -8.1,0.1 -16,0.1 -24.3,0 l 0.1,-68.5 c 16.4,0 33.7,-0.5 50.4,0.2 z m -26.2,15 c 0,0 0,18.5 0,18.4 3.3,0.7 7.5,0.8 11.1,0.4 1.1,-0.2 2.2,-1.1 2.2,-2.2 -0.2,-5.1 0.9,-10.7 -0.5,-15.3 -1.3,-2 -10.7,-1.2 -12.8,-1.3 z"
         inkscape:connector-curvature="0" />
      <path
         id="path4154"
         d="M 97.3,43 C 101.6,58.1 97.2,73.6 86.9,84.7 74.8,97.4 57.7,102.1 40.4,98.2 33.7,96 27.1,93.1 22.2,87.2 c 0.2,-0.4 0.4,-1.1 1.1,-1.1 6.5,4.6 16.4,7.3 23.7,2.6 5.7,-3.8 11,-6.6 11.1,-17.5 l 0.3,-29.5 0.7,-0.5 c 12.4,0.2 25,-0.1 37,0.1 l 1.2,1.7 z"
         inkscape:connector-curvature="0" />
      <path
         id="path4156"
         d="m 511.2,31 c 2.9,12 1.9,26.4 1.3,39.2 0,5.6 -3,10.2 -7.2,13.6 -9.9,6.2 -23.5,6.8 -35.4,4.4 -5.5,-1.3 -11.3,-4.6 -14.4,-9.7 -4.3,-11.9 -2.6,-26.1 -2.6,-39.4 -0.3,-7.1 3.7,-14.2 10.4,-16.9 12.6,-4.9 29.2,-5.2 41.2,1.2 2.9,1.7 5.6,4.5 6.7,7.6 z M 476,73.7 c 0,4.9 13.7,5.4 13.7,0 0,-5.4 -0.1,-32.1 -0.1,-38 0,-5.9 -13.6,-5.6 -13.6,0 0,-0.1 0,33.1 0,38 z"
         inkscape:connector-curvature="0" />
    </g>
  </g>
</svg>
