<?xml version="1.0" encoding="UTF-8" standalone="no"?><!DOCTYPE svg PUBLIC "-//W3C//DTD SVG 1.1//EN" "http://www.w3.org/Graphics/SVG/1.1/DTD/svg11.dtd"><svg width="100%" height="100%" viewBox="0 0 26 32" version="1.1" xmlns="http://www.w3.org/2000/svg" xmlns:xlink="http://www.w3.org/1999/xlink" xml:space="preserve" style="fill-rule:evenodd;clip-rule:evenodd;stroke-miterlimit:10;"><g><path id="path3442" d="M5.912,8.66c0.311,-0.078 0.638,-0.047 0.948,0.031c0.669,0.171 1.275,0.606 1.679,1.165c0.435,0.575 0.699,1.275 0.746,2.005c-1.741,0.482 -3.481,0.964 -5.238,1.446c0.125,-0.094 0.109,-0.265 0.063,-0.389c-0.156,-0.451 -0.218,-0.932 -0.218,-1.399c0,-0.606 0.124,-1.212 0.451,-1.74c0.357,-0.56 0.932,-0.995 1.569,-1.119Z" style="fill:none;stroke:#000;stroke-width:0.16px;"/><path id="path3463" d="M19.387,10.54c0.186,-0.046 0.357,-0.155 0.543,-0.124c0.094,2.067 -0.45,4.18 -1.709,5.843c-1.539,1.959 -3.077,3.917 -4.616,5.89c-0.046,0.047 -0.077,0.109 -0.124,0.156c-1.414,0.653 -2.829,1.305 -4.243,1.942c-0.435,0.187 -0.855,0.405 -1.29,0.575c1.539,-2.035 3.077,-4.071 4.616,-6.123c0.264,-0.357 0.528,-0.715 0.746,-1.103c0.73,-1.243 1.134,-2.673 1.212,-4.119c0.047,-0.621 0,-1.227 -0.062,-1.849c0.762,0.14 1.539,0.047 2.253,-0.264c0.156,-0.062 0.296,-0.14 0.467,-0.187c0.73,-0.186 1.461,-0.419 2.207,-0.637Z" style="fill:none;stroke:#000;stroke-width:0.16px;"/><path id="path3482" d="M23.723,8.411c-0.451,0.591 -1.026,1.088 -1.71,1.368c-0.264,0.124 -0.544,0.186 -0.824,0.279c-0.342,0.109 -0.683,0.202 -1.025,0.311c-0.047,0.016 -0.109,0.031 -0.156,0.047l-3.295,0.979c0.078,-0.031 0.171,-0.078 0.249,-0.124l0.124,-0.078l0.109,-0.062c0.016,-0.016 0.031,-0.016 0.047,-0.031l0.031,-0.016c0.016,-0.015 0.031,-0.015 0.031,-0.031l0.062,-0.031c0.715,-0.497 1.275,-1.212 1.616,-2.02c0.964,-2.223 0.451,-5.005 -1.212,-6.761c-0.792,-0.823 -1.88,-1.414 -3.046,-1.461c-0.077,0 -0.171,-0.015 -0.248,-0.015l-0.047,0c0.202,-0.016 0.404,-0.062 0.622,-0.062c0.435,-0.078 0.885,-0.109 1.321,-0.171c1.072,-0.125 2.129,-0.264 3.201,-0.404c0.264,-0.047 0.544,-0.031 0.808,-0.031c1.088,0.062 2.098,0.606 2.829,1.398c0.885,0.948 1.414,2.207 1.476,3.513c0.062,1.196 -0.233,2.44 -0.963,3.403Z" style="fill:none;stroke:#000;stroke-width:0.16px;"/><path id="path3493" d="M10.699,2.148c0.311,-0.047 0.637,-0.093 0.948,-0.109c-0.575,0.606 -0.979,1.352 -1.197,2.145c-0.45,-0.311 -0.917,-0.591 -1.414,-0.824c-1.01,-0.45 -2.113,-0.668 -3.217,-0.575c1.616,-0.217 3.248,-0.419 4.88,-0.637Z" style="fill:none;stroke:#000;stroke-width:0.16px;"/><path id="path3504" d="M14.444,4.37c0.42,-0.046 0.84,0.125 1.151,0.389c0.466,0.404 0.745,1.041 0.714,1.663c0.031,0.497 -0.139,1.026 -0.497,1.383c-0.28,0.28 -0.668,0.435 -1.072,0.435c-0.404,-0.015 -0.793,-0.233 -1.073,-0.528c-0.388,-0.404 -0.621,-0.964 -0.606,-1.523c-0.015,-0.467 0.14,-0.948 0.435,-1.306c0.249,-0.279 0.591,-0.466 0.948,-0.513Z" style="fill:none;stroke:#000;stroke-width:0.16px;"/><g id="g3508"><path id="path3514" d="M17.755,2.241c-0.793,-0.823 -1.881,-1.414 -3.046,-1.461c-0.078,0 -0.171,-0.015 -0.249,-0.015c-1.057,0.015 -2.098,0.497 -2.813,1.274c-0.575,0.606 -0.979,1.352 -1.197,2.145c-0.45,-0.311 -0.917,-0.591 -1.414,-0.824c-1.01,-0.45 -2.113,-0.668 -3.217,-0.575c-1.569,0.14 -3.077,0.917 -4.103,2.129c-0.839,0.979 -1.321,2.223 -1.414,3.497c-0.078,1.181 0.14,2.409 0.777,3.419c0.451,0.715 1.15,1.306 1.974,1.508c0.326,0.108 0.699,0.077 1.026,-0.063c0.124,-0.093 0.108,-0.264 0.062,-0.388c-0.156,-0.451 -0.218,-0.933 -0.218,-1.399c0,-0.606 0.124,-1.212 0.451,-1.74c0.342,-0.56 0.917,-0.995 1.554,-1.135c0.311,-0.078 0.637,-0.047 0.948,0.031c0.668,0.171 1.274,0.606 1.678,1.166c0.436,0.575 0.7,1.274 0.746,2.005c0.031,0.435 -0.031,0.885 -0.155,1.305c-0.155,0.482 -0.42,0.917 -0.684,1.352c-0.668,1.057 -1.383,2.083 -2.082,3.108c-0.482,0.7 -0.948,1.399 -1.415,2.114c-1.445,2.176 -2.906,4.367 -4.32,6.574c-0.171,0.28 -0.373,0.559 -0.482,0.87c-0.077,0.264 -0.109,0.544 0.016,0.808c0.14,0.311 0.435,0.529 0.761,0.606c0.404,0.109 0.808,0.202 1.197,0.296c4.18,1.01 8.377,2.004 12.573,2.999c0.171,0.047 0.342,-0.015 0.466,-0.109c0.124,-0.155 0.171,-0.342 0.171,-0.544c0,-0.606 0,-1.212 0,-1.818c-0.016,-0.373 -0.047,-0.761 -0.171,-1.119c-0.202,-0.668 -0.591,-1.274 -1.104,-1.741c-0.388,-0.357 -0.854,-0.621 -1.367,-0.73c-1.585,-0.326 -3.171,-0.637 -4.756,-0.964l0.016,-0.015c1.538,-2.036 3.077,-4.072 4.616,-6.123c0.264,-0.358 0.528,-0.715 0.746,-1.104c0.73,-1.243 1.134,-2.673 1.212,-4.118c0.046,-0.622 0,-1.228 -0.062,-1.849c0.761,0.139 1.538,0.046 2.253,-0.265c1.026,-0.45 1.818,-1.352 2.269,-2.377c0.932,-2.207 0.42,-4.974 -1.243,-6.73Zm-1.943,5.548c-0.28,0.28 -0.668,0.436 -1.072,0.436c-0.404,-0.016 -0.793,-0.234 -1.073,-0.529c-0.388,-0.404 -0.621,-0.963 -0.606,-1.523c-0.015,-0.466 0.14,-0.948 0.435,-1.305c0.234,-0.28 0.575,-0.467 0.933,-0.513c0.42,-0.047 0.839,0.124 1.15,0.388c0.466,0.404 0.746,1.042 0.715,1.663c0.062,0.513 -0.124,1.026 -0.482,1.383Z" style="fill:#1d1d1b;fill-rule:nonzero;stroke:#000;stroke-width:0.16px;"/><path id="path3529" d="M20.086,24.683c-0.42,-0.762 -1.119,-1.384 -1.974,-1.555c-1.538,-0.279 -3.077,-0.543 -4.631,-0.823c-1.414,0.653 -2.829,1.305 -4.243,1.942c-0.435,0.187 -0.855,0.405 -1.29,0.575l-0.015,0.016c1.585,0.326 3.17,0.637 4.755,0.964c0.513,0.108 0.979,0.373 1.368,0.73c0.295,0.264 0.544,0.575 0.73,0.917c0.156,0.264 0.28,0.544 0.373,0.839c0.125,0.358 0.156,0.746 0.171,1.119c0,0.606 0,1.212 0,1.818c0,0.187 -0.046,0.389 -0.171,0.544c1.648,-1.01 3.295,-2.036 4.942,-3.046c0.078,-0.046 0.171,-0.093 0.234,-0.171c0.108,-0.108 0.155,-0.248 0.139,-0.388c0,-0.637 -0.015,-1.29 0,-1.927c0,-0.467 -0.108,-0.933 -0.31,-1.368c-0.016,-0.062 -0.047,-0.124 -0.078,-0.186Z" style="fill:none;stroke:#000;stroke-width:0.16px;"/></g></g></svg>