<svg xmlns="http://www.w3.org/2000/svg" viewBox="0 188.5 30.429048 29.999992" width="30.429" height="30">
    <path d="M24.184 188.5c-1.51.06-3.335 1.005-4.42 2.274-.97 1.12-1.82 2.918-1.59 4.64 1.684.13 3.403-.856 4.45-2.122 1.048-1.27 1.755-3.034 1.56-4.792zm-.574 7.23c-2.13.03-4.106 1.4-5.198 1.4-1.183 0-3.013-1.342-4.95-1.304-2.548.038-4.894 1.48-6.207 3.76-2.645 4.59-.675 11.39 1.9 15.116 1.262 1.82 2.763 3.872 4.737 3.796 1.902-.076 2.62-1.228 4.916-1.228 2.295 0 2.942 1.228 4.952 1.192 2.044-.04 3.34-1.86 4.593-3.687 1.445-2.114 2.042-4.16 2.076-4.267-.05-.02-3.99-1.53-4.03-6.07-.037-3.796 3.1-5.62 3.24-5.707-1.764-2.58-4.51-2.93-5.49-2.972-.18-.018-.363-.026-.544-.024z"/>
</svg>
