<svg xmlns="http://www.w3.org/2000/svg" viewBox="0 188.5 113.88338 25" width="113.883" height="25">
    <path d="M4 213.5h25v-25H4v25zm16.02-23.09c4.415 1.445 7.605 5.64 7.62 10.59.012 4.868-3.123 9.048-7.62 10.59v-21.18zm-3.52-.562c.798 0 1.65.11 2.35.247 0 5.666-5.472 10.327-11.123 10.327H5.36c.386-5.816 5.186-10.574 11.14-10.574zM7.727 201.59c5.65 0 11.124 4.663 11.124 10.315-.7.15-1.59.247-2.35.247-5.95-.013-10.92-4.785-11.14-10.56h2.37zm29.633 1.61v-1.58h5.2v-2.01h-5.2v-2.928h5.53v-2.008h-7.66v8.415c0 2.13.907 3.59 3.038 3.87.042.01.083.01.124.01h.04c.22.024.44.04.675.04h3.933V205h-3.92c-.673.03-1.76-.3-1.76-1.815zm9.324 3.85v-12.36h-2.13v12.364m8.236-9.23c-2.695 0-4.703 1.856-4.703 4.744v.068c0 2.82 1.94 4.635 4.758 4.635 1.36 0 2.626-.37 3.782-1.6l-1.28-1.25c-.673.68-1.333 1.038-2.42 1.038-1.58 0-2.64-.922-2.71-2.352h6.987c.04-.355.04-.74.04-.74-.012-2.503-1.773-4.525-4.454-4.525zm-2.53 3.78c.082-1.085 1.196-1.965 2.53-1.965 1.25 0 2.27.89 2.27 1.96h-4.8zm12.953-1.87c.963 0 1.678.358 2.283.977l1.32-1.37c-1.03-1.1-2.27-1.55-3.603-1.55-2.71 0-4.88 2.02-4.88 4.76 0 2.75 2.17 4.76 4.88 4.76 1.334 0 2.572-.44 3.603-1.55l-1.32-1.375c-.605.618-1.32.975-2.283.975-1.567 0-2.764-1.2-2.764-2.82 0-1.597 1.19-2.79 2.76-2.79zm7.07 3.466v-3.163h1.924v-1.94h-1.925v-3.423H68.15v8.65c.055 2.008.977 3.383 3.025 3.672.042.013.083.013.124.013h.04c.22.02.44.04.67.04h.22l.01-2.01h-.22c-.68.01-1.75-.33-1.75-1.85zm5.83-3.768v-1.334h-2.12v8.966h2.12v-4.703c0-1.47.934-2.39 2.406-2.39.34 0 .64.04.89.08v-2.06c-.09-.01-.42-.05-.64-.05-1.28 0-2.24.58-2.67 1.5zm8.51-1.595c-2.72 0-4.88 2.063-4.88 4.744 0 2.69 2.16 4.75 4.88 4.75 2.697 0 4.883-2.06 4.883-4.74s-2.186-4.74-4.882-4.74zm0 7.55c-1.58 0-2.763-1.224-2.763-2.806 0-1.58 1.183-2.8 2.764-2.8 1.568 0 2.764 1.23 2.764 2.81s-1.196 2.81-2.764 2.81zm8.32 1.663v-12.36h-2.13v12.364m9.817-3.744c0 1.417-.838 2.022-1.952 2.022-1.114 0-1.952-.605-1.952-2.008v-5.212H94.58v5.39c0 2.56 1.87 3.78 4.084 3.78 2.242 0 4.112-1.235 4.112-3.834v-5.336h-2.145v5.198zm5.735-5.198h-2.31l1.32 1.802 1.774 2.42-1.86 2.57-1.54 2.147h2.29l2.27-3.16 2.27 3.17h2.29l-2.05-2.86-1.348-1.87 1.664-2.27 1.43-1.94h-2.325l-1.94 2.68"/>
</svg>
