<svg xmlns="http://www.w3.org/2000/svg" viewBox="0 0 279 17.4"><title>fp-logo-largest</title><g id="Layer_2" data-name="Layer 2"><g id="Layer_1-2" data-name="Layer 1"><path d="M0,17.13V.27H11.86V4H4.39V7.44h6.86v3.71H4.39v6Z"/><path d="M24.59,17.13H20.2V.27h4.39Z"/><path d="M33,11.8a10.84,10.84,0,0,0,5.71,1.92c1.29,0,2.5-.3,2.5-1.43,0-.8-.58-1.1-1.43-1.34l-2.55-.77c-2.83-.85-4.31-2.2-4.31-4.86C32.93,2.11,35.76,0,39.38,0A10.61,10.61,0,0,1,44.6,1.26V5.32a9.28,9.28,0,0,0-5.1-1.67c-1.32,0-2.25.38-2.25,1.32,0,.69.47,1,1.34,1.24L41.14,7c3.07,1,4.47,2.42,4.47,4.94,0,3.62-3.27,5.49-6.89,5.49A12,12,0,0,1,33,16Z"/><path d="M69.13.27V17.13H64.74V10.37H58.29v6.75H53.9V.27h4.39V6.67h6.45V.27Z"/><path d="M90.51.27V4H82.86V6.67h7v3.71h-7v3h7.66v3.71h-12V.27Z"/><path d="M99.54.27h7.16c3.76,0,6.61,2.06,6.61,5.82a5.38,5.38,0,0,1-3.68,5.32l4.45,5.71H109l-4-5.21h-1.1v5.21H99.54Zm4.39,7.93h2.5c1.59,0,2.61-.82,2.61-2.11S108,4,106.43,4h-2.5Z"/><path d="M140.35,15.73a7,7,0,0,1-4.67,1.67c-3.57,0-6.53-2.33-6.53-6.18a6.94,6.94,0,0,1,3-5.57L130.5,3.57V.27h11.31V4h-6l4.56,5.82,1.07-1.59H146l-3.24,4.67,3.35,4.25H141.5ZM138,12.87l-3.54-4.36a3.28,3.28,0,0,0-1.45,2.69,2.55,2.55,0,0,0,2.63,2.58A3.23,3.23,0,0,0,138,12.87Z"/><path d="M166.42,17.13H162V.27h7.16c3.76,0,6.61,2.06,6.61,5.82s-2.85,5.82-6.61,5.82h-2.77Zm0-8.92h2.5c1.59,0,2.61-.82,2.61-2.11S170.51,4,168.92,4h-2.5Z"/><path d="M192.41,14h-6.75l-1.21,3.1h-4.31L187,.27h4.17L198,17.13h-4.42Zm-5.3-3.71H191L189,5.38Z"/><path d="M207.32,17.13V10.59L200.95.27h4.94l3.76,6.5,3.76-6.5h4.67l-6.37,10.32v6.53Z"/><path d="M228.67,7.44,234,.27h5.13l-6.23,8.07,6.48,8.78h-5.21l-5.54-7.55v7.55h-4.39V.27h4.39Z"/><path d="M258,.27V4h-7.66V6.67h7v3.71h-7v3H258v3.71H246V.27Z"/><path d="M267,.27h4.39V13.42H279v3.71H267Z"/></g></g></svg>