<svg xmlns="http://www.w3.org/2000/svg" viewBox="0 188.5 122.00039 25" width="122" height="25">
    <path d="M121.096 199.81v-2.06h-2.558v-3.202l-.086.027-2.402.735-.047.014v2.426h-3.79v-1.35c0-.63.14-1.112.417-1.433.275-.317.67-.48 1.17-.48.362 0 .736.086 1.113.254l.094.05v-2.17l-.044-.013c-.35-.126-.83-.19-1.42-.19-.747 0-1.425.163-2.016.484-.59.32-1.056.78-1.382 1.367-.325.584-.49 1.26-.49 2.005v1.487h-1.78v2.06h1.78v8.675h2.557v-8.673h3.79v5.513c0 2.27 1.072 3.42 3.184 3.42.347 0 .713-.04 1.086-.12.38-.08.638-.162.79-.25l.034-.02v-2.08l-.104.07c-.14.09-.312.17-.514.225-.204.056-.374.085-.505.085-.495 0-.86-.135-1.088-.4-.23-.264-.347-.73-.347-1.38v-5.066h2.558zm-18.93 6.844c-.928 0-1.66-.308-2.175-.914-.51-.61-.78-1.477-.78-2.58 0-1.14.27-2.03.78-2.65.52-.616 1.24-.928 2.16-.928.89 0 1.59.298 2.1.888.51.592.767 1.476.767 2.627 0 1.166-.243 2.062-.72 2.66-.475.595-1.19.897-2.123.897m.114-9.162c-1.77 0-3.176.518-4.18 1.54-1 1.024-1.51 2.44-1.51 4.21 0 1.68.498 3.033 1.476 4.018.976.985 2.31 1.484 3.953 1.484 1.717 0 3.095-.526 4.098-1.563 1-1.03 1.51-2.43 1.51-4.16 0-1.704-.475-3.07-1.415-4.044-.94-.98-2.263-1.475-3.93-1.475m-9.81 0c-1.205 0-2.2.307-2.96.915-.768.61-1.156 1.41-1.156 2.38 0 .503.083.95.25 1.33.164.38.42.718.762 1 .34.28.86.57 1.554.87.584.238 1.02.44 1.294.6.27.157.46.315.57.468.106.15.16.355.16.61 0 .72-.54 1.07-1.65 1.07-.414 0-.885-.085-1.4-.255-.515-.17-.997-.412-1.43-.725l-.107-.078v2.46l.04.02c.36.166.816.307 1.353.42.537.11 1.024.165 1.448.165 1.307 0 2.36-.31 3.127-.92.774-.617 1.166-1.437 1.166-2.44 0-.724-.21-1.345-.625-1.845-.41-.496-1.13-.95-2.128-1.354-.797-.32-1.307-.582-1.517-.785-.204-.195-.307-.473-.307-.825 0-.31.13-.56.39-.765.262-.204.63-.307 1.087-.307.426 0 .862.065 1.295.197.435.133.815.31 1.133.525l.103.072v-2.335l-.04-.017c-.292-.124-.68-.23-1.15-.32-.465-.085-.89-.13-1.26-.13m-10.78 9.164c-.925 0-1.66-.308-2.172-.914-.52-.61-.78-1.477-.78-2.58 0-1.14.262-2.03.78-2.65.516-.616 1.24-.928 2.154-.928.886 0 1.59.298 2.097.888.505.593.763 1.477.763 2.628 0 1.168-.242 2.064-.72 2.66-.474.597-1.19.9-2.122.9m.117-9.16c-1.77 0-3.178.516-4.18 1.54-1 1.022-1.51 2.44-1.51 4.21 0 1.68.496 3.03 1.474 4.016.977.986 2.308 1.485 3.955 1.485 1.715 0 3.094-.527 4.096-1.564 1-1.036 1.51-2.438 1.51-4.167 0-1.706-.477-3.07-1.417-4.046-.94-.98-2.264-1.476-3.93-1.476m-9.57 2.115v-1.86h-2.53V208.5h2.524V203c0-.935.212-1.702.63-2.28.412-.574.962-.864 1.633-.864.226 0 .482.038.76.113.272.07.47.15.587.24l.106.07v-2.545l-.04-.018c-.23-.1-.564-.15-.99-.15-.63 0-1.2.203-1.684.604-.428.35-.737.836-.97 1.44h-.03zm-7.048-2.12c-1.16 0-2.192.25-3.07.74-.882.49-1.563 1.19-2.026 2.083-.46.89-.696 1.926-.696 3.083 0 1.016.227 1.947.676 2.767.45.823 1.09 1.465 1.89 1.91.806.447 1.735.67 2.76.67 1.2 0 2.23-.24 3.05-.71l.033-.02v-2.32l-.105.077c-.374.27-.79.488-1.237.644-.445.156-.852.235-1.21.235-.99 0-1.785-.31-2.362-.92-.58-.612-.872-1.472-.872-2.553 0-1.09.306-1.97.91-2.62.6-.65 1.397-.978 2.368-.978.83 0 1.64.28 2.406.835l.107.075v-2.438l-.033-.02c-.29-.16-.68-.293-1.17-.394-.486-.1-.96-.15-1.41-.15m-7.53.26h-2.53v10.74h2.524v-10.74zm-1.24-4.57c-.417 0-.78.14-1.077.42-.3.28-.45.635-.45 1.053 0 .41.15.76.445 1.033.294.272.657.41 1.08.41.423 0 .79-.138 1.086-.41.3-.275.45-.62.45-1.033 0-.402-.15-.753-.44-1.04-.29-.287-.66-.433-1.1-.433m-6.3 3.78v11.53h2.58v-14.98h-3.57l-4.53 11.12-4.4-11.126h-3.71v14.98h2.42v-11.53H39l4.64 11.53h1.83l4.572-11.53h.084zm-34.252 3.43H3.992v-11.9h11.88v11.88zm13.117 0H17.11v-11.9h11.88v11.88zm-13.12 13.1H3.993v-11.88h11.88v11.88zm13.117 0H17.11v-11.88h11.88v11.88z"/>
</svg>
