<svg xmlns="http://www.w3.org/2000/svg" version="1" width="113.554" height="23" viewBox="0 0 113.55355 23">
    <g clip-rule="evenodd" fill-rule="evenodd">
        <path d="M14.545 11.848l5.17 6.588c2.622 3.29 8.436 4.82 12.636 3.164l.04.056c-4.75 2.543-11.11 1.253-15.11-1.99-2.82-2.194-4.43-5.305-6.8-7.83v5.223c0 .45.288.76.288.76l-2.076-.006s.278-.314.28-.765V4.715c1.964 2.36 3.66 4.636 5.584 7.13zm95.903 4.585c0-.858.696-1.552 1.554-1.552.856 0 1.552.7 1.552 1.56s-.696 1.556-1.552 1.556c-.858 0-1.554-.696-1.554-1.554zM112 17.83c.77 0 1.397-.625 1.397-1.397s-.627-1.397-1.397-1.397c-.772 0-1.397.625-1.397 1.397s.624 1.397 1.397 1.397z"/>
        <path d="M111.322 15.498h.84c.384 0 .582.177.582.475 0 .338-.233.424-.29.445v.005c.105.014.26.094.26.37 0 .205.03.393.097.464h-.33c-.04-.077-.04-.173-.04-.258 0-.33-.065-.47-.35-.47h-.45v.72h-.31v-1.76zm.31.802h.503c.195 0 .3-.096.3-.282 0-.224-.145-.268-.305-.268h-.5v.55zm-7.516 1.725c-.802.006-6.282-.175-6.27-6.41.01-6.22 5.428-6.305 6.27-6.3.842-.004 6.26.082 6.27 6.3.012 6.235-5.467 6.416-6.27 6.41zm.023-1.722c.34 0 2.88.115 2.85-4.93-.02-4.675-2.478-4.54-2.88-4.538h.003c-.4-.002-2.865-.137-2.886 4.54-.023 5.043 2.51 4.928 2.857 4.928h.045zM96.27 6.016V7.56c-.642-.268-1.002-.46-1.678-.646-.53-.117-2.813-.66-3.902.49-.463.464-.604 1.32.313 1.972 1.294.838 3.142 1.22 4.657 2.46.995.787 1.313 1.708 1.06 3.117-.258 1.438-1.83 2.596-3.234 2.89-2.046.423-4.354.225-6.178-.55l.007-1.525c1.677.7 4.29 1.594 5.91.176.443-.406.714-.99.48-1.585-.37-1.11-3.373-1.76-5.21-3.14-1.82-1.12-1.656-3.03-1.02-4.09 1.718-2.57 6.07-1.86 8.793-1.12zm-10.516 0V7.56c-.64-.268-1-.46-1.677-.646-.53-.117-2.81-.66-3.9.49-.466.464-.606 1.32.312 1.972 1.29.838 3.14 1.22 4.65 2.46.994.787 1.312 1.708 1.06 3.117-.26 1.438-1.83 2.596-3.236 2.89-2.045.423-4.355.225-6.18-.55l.01-1.525c1.678.7 4.29 1.594 5.91.176.443-.406.715-.99.48-1.585-.37-1.11-3.373-1.76-5.21-3.14-1.82-1.12-1.656-3.03-1.018-4.09 1.714-2.57 6.07-1.86 8.79-1.12zm-43.068 0l-.003 1.545c-.64-.26-1-.46-1.678-.64-.53-.114-2.81-.66-3.9.49-.466.467-.606 1.32.31 1.97 1.296.84 3.143 1.22 4.658 2.46.994.79 1.31 1.71 1.057 3.12-.257 1.44-1.828 2.597-3.233 2.89-2.047.424-4.354.226-6.18-.55l.01-1.524c1.677.7 4.29 1.595 5.91.177.443-.406.714-.99.48-1.585-.37-1.106-3.372-1.76-5.21-3.133-1.82-1.115-1.656-3.03-1.02-4.09 1.717-2.57 6.07-1.86 8.793-1.12zM15.8 11.478c1.926 2.497 3.62 4.773 5.583 7.13V6.27c.004-.453.28-.766.28-.766l-2.07-.002s.282.314.282.767v5.22c-1.767-1.88-3.11-4.08-4.84-5.99-.22-.268-1.714-1.87-2.17-2.255C9.755.21 4.715-1.038 0 .992l.047.08c1.61-.55 3.94-.54 6.22.39 1.473.544 2.695 1.3 3.912 2.8.31.414 5.62 7.22 5.62 7.22zm11.378 5.094c1.658.166 3.69-.092 5.31-.13l.003 1.38h-8.78s.28-.29.28-.766V6.268c0-.477-.272-.768-.272-.768H32.5v1.38c-1.623-.037-3.654-.294-5.313-.13l-.004 4.07c1.366.085 2.97.1 4.245-.07v1.468c-1.25-.116-2.89-.143-4.24-.07v4.424zm43.122 0c1.66.166 3.69-.092 5.31-.13l.004 1.38H66.83s.277-.29.277-.766V6.268c0-.477-.276-.768-.276-.768h8.79v1.38c-1.62-.037-3.65-.294-5.31-.13l-.004 4.07c1.364.085 2.968.1 4.24-.07v1.468c-1.246-.116-2.89-.143-4.24-.07v.47l.005 3.954zM58.368 12.73v4.322c.002.475.28.772.28.772h-3.76s.277-.293.278-.77V6.27c0-.477-.278-.768-.278-.768h6.403c1.74.07 3.58 1.033 3.64 3.124.02 1.71-.74 2.69-1.87 3.234-.222.1-.202.073-.276.128.805 1.88 1.537 3.252 2.51 5.07.2.468.59.767.59.767H62s.228-.3-.01-.767c0 0-1.376-3.245-2.02-4.324l-1.602-.002zm-.018-5.674v4.15c1.057.004 2.342.14 3.08-.71.62-.828.52-1.906.1-2.66-.737-1.245-3.18-.78-3.18-.78zm-10.51 9.996c0 .475.277.772.277.772H44.36s.275-.293.277-.77V6.27c0-.477-.278-.768-.278-.768h6.2c1.553.055 2.75.77 3.27 2.27.39 1.328.33 3.042-.61 4.11-1.254 1.677-5.4 1.43-5.4 1.43l.01 3.742zm-.016-9.986l-.008 4.622c1.07.073 2.342.192 3.08-.656.62-.83.52-2.437.1-3.192-.736-1.244-3.172-.774-3.172-.774z"/>
    </g>
</svg>
