<svg xmlns="http://www.w3.org/2000/svg" height="20" width="109.229" preserveAspectRatio="xMidYMid" viewBox="0 0 10.922885 2.0000001" id="svg2">
    <defs id="defs4">
        <style id="style6">
            .cls-2 { fill: #000; }
        </style>
    </defs>
    <path id="path-1" class="cls-2" d="M10.707.334c-.078 0-.11.015-.17.084-.025.032-.632.752-.648.77-.01.01-.01.026-.01.034v.4c.01.017.02.034.043.04.01.004.05.005.06.005h.22v.222H9.04v-.23h.208c.01 0 .052 0 .06-.006.023-.008.04-.025.046-.043.003-.007.005-.04.005-.047v-.35c0-.01-.01-.014-.02-.033L8.7.433c-.034-.04-.094-.1-.185-.1h-.21v-.22h1.18v.22h-.143c-.033 0-.055.033-.027.07l.4.497h.012l.406-.5c.02-.026.007-.07-.034-.07h-.15V.11h.962v.22H10.7zM7.775.472l.018 1.418H7.45L6.095.634v.89c.002.098.006.144.102.144h.24v.222h-.985v-.222h.23c.087 0 .083-.086.083-.148V.48c0-.067-.01-.146-.144-.146h-.18V.112h.84l1.17 1.102-.01-.742c0-.098-.017-.138-.12-.138H7.1V.112h1v.222h-.214c-.104 0-.11.034-.11.138zM3.89 2c-.394 0-.762-.123-1.007-.352-.185-.173-.274-.408-.274-.65 0-.24.09-.475.27-.647C3.11.14 3.51 0 3.89 0c.42 0 .755.11 1.012.352.182.172.27.407.27.646 0 .232-.093.48-.27.65-.24.23-.614.352-1.01.352zM4.433.475C4.298.338 4.098.26 3.893.26c-.21 0-.41.077-.543.215-.13.134-.198.323-.198.523s.07.39.198.522c.134.14.333.216.54.216.21 0 .406-.075.542-.216.135-.14.198-.312.198-.522 0-.2-.068-.39-.198-.523zM1.09.712c.15.016.46.06.597.094.07.018.158.05.213.078.063.03.123.07.173.122.036.038.14.162.14.362 0 .208-.12.323-.173.368-.1.083-.224.136-.323.166-.106.032-.26.08-.543.08C1 1.982.91 1.96.768 1.93c-.17-.038-.334-.106-.39-.132-.045-.02-.058.023-.058.034v.094H.053v-.7h.24c0 .084.038.168.063.198.096.123.2.172.3.208.085.032.32.093.516.093.266 0 .413-.07.435-.08.02-.008.144-.05.144-.185 0-.136-.11-.16-.18-.18-.09-.023-.3-.046-.52-.07-.22-.023-.44-.06-.54-.083C.27 1.074.18.985.127.932.13.936 0 .812 0 .602 0 .365.154.224.343.136.547.042.788 0 1 0c.373.002.677.128.785.187.043.025.066-.005.066-.028V.08h.24v.61h-.21C1.86.582 1.79.5 1.75.462 1.703.43 1.653.4 1.608.38c-.13-.06-.33-.116-.57-.115-.2 0-.395.04-.49.1-.06.04-.09.09-.09.146 0 .08.065.12.1.13.106.037.38.06.533.078z" fill-rule="evenodd"/>
</svg>
