<?xml version="1.0" encoding="UTF-8" standalone="no"?>
<svg
   xmlns:dc="http://purl.org/dc/elements/1.1/"
   xmlns:cc="http://creativecommons.org/ns#"
   xmlns:rdf="http://www.w3.org/1999/02/22-rdf-syntax-ns#"
   xmlns:svg="http://www.w3.org/2000/svg"
   xmlns="http://www.w3.org/2000/svg"
   xmlns:sodipodi="http://sodipodi.sourceforge.net/DTD/sodipodi-0.dtd"
   xmlns:inkscape="http://www.inkscape.org/namespaces/inkscape"
   height="25.000013"
   width="116.64365"
   preserveAspectRatio="xMidYMid"
   viewBox="0 0 11.664349 2.5000015"
   id="svg2"
   version="1.1"
   inkscape:version="0.91 r13725"
   sodipodi:docname="westinghouse.svg">
  <metadata
     id="metadata8">
    <rdf:RDF>
      <cc:Work
         rdf:about="">
        <dc:format>image/svg+xml</dc:format>
        <dc:type
           rdf:resource="http://purl.org/dc/dcmitype/StillImage" />
        <dc:title></dc:title>
      </cc:Work>
    </rdf:RDF>
  </metadata>
  <sodipodi:namedview
     pagecolor="#ffffff"
     bordercolor="#666666"
     borderopacity="1"
     objecttolerance="10"
     gridtolerance="10"
     guidetolerance="10"
     inkscape:pageopacity="0"
     inkscape:pageshadow="2"
     inkscape:window-width="1920"
     inkscape:window-height="1017"
     id="namedview6"
     showgrid="false"
     inkscape:zoom="7.9754972"
     inkscape:cx="45.602616"
     inkscape:cy="-5.7804124"
     inkscape:window-x="1912"
     inkscape:window-y="-8"
     inkscape:window-maximized="1"
     inkscape:current-layer="svg2"
     fit-margin-top="0"
     fit-margin-left="0"
     fit-margin-right="0"
     fit-margin-bottom="0" />
  <defs
     id="defs4">
    <style
       id="style6">
            .cls-2 { fill: #000; }
        </style>
  </defs>
  <g
     id="g4137"
     transform="matrix(0.00522246,0,0,0.00522248,-0.08669894,-0.22874453)">
    <polygon
       id="polygon4139"
       points="699.2,157.5 728.1,318.4 752.9,157.5 794.5,157.5 750.7,413.3 709.8,413.3 677.3,236.1 644.5,413.3 602.8,413.3 559.4,157.5 601.1,157.5 626.1,318.4 655.1,157.5 " />
    <g
       id="g4141">
      <path
         id="path4143"
         d="m 797.5,321.3 c 0,71.6 19.8,96.1 66.5,96.1 44.9,0 60.3,-33.3 60.3,-61.5 l 0,-12.7 -38.7,0 0,4.6 c 0,18.1 -2.5,32.9 -21.6,32.9 -17.4,0 -25.9,-8.5 -25.9,-36.7 l 0,-24.7 86.2,0 0,-40.6 c 0,-37.7 -16.5,-69 -61.4,-69 -49.6,0 -65.4,29.8 -65.4,71.1 l 0,40.5 z m 38.8,-42 c 0,-14.2 1.7,-37.7 25.5,-37.7 20.9,0 23.8,21.7 23.8,37.4 l 0,6.7 -49.3,0 0,-6.4 z"
         inkscape:connector-curvature="0" />
      <path
         id="path4145"
         d="m 1133.8,364.7 c 0,11.6 2.9,20.5 6,28.6 3.2,8.1 6.3,13.8 12,20.1 l -40.5,0 c -4.8,-7.1 -8.3,-12.7 -10.4,-21.9 -3.4,-9.2 -3.8,-15.2 -3.8,-24.7 l 0,-119.1 -86.8,0 c -20.5,0 -24.4,12 -24.8,17.3 -1.8,12.7 5.6,20.5 15.9,29.4 l 39,20.5 c 22.3,11.7 30.5,26.1 30.5,50.5 0,36.4 -29.4,52 -62.3,52 -35.7,0 -65.2,-27.9 -65.2,-65 l 0,-6.3 36.8,0 0,1.8 c 0,17.6 9.2,37.1 31.9,36.3 10.7,-0.3 16.3,-6.3 18.8,-15.5 4.2,-12.8 -8.1,-23.4 -18.1,-28.3 l -34.3,-19.8 c -18.9,-13.8 -31.2,-26.1 -31.2,-53.4 0,-31.8 26.3,-53.5 66.3,-53.5 l 83.6,0 0,-35.7 35.7,0 0,35.6 29.9,0 0,34.1 -28.9,0 0,117 z"
         inkscape:connector-curvature="0" />
      <path
         id="path4147"
         d="m 1203.4,153.5 c 11.9,0 21.4,8.8 21.4,20.8 0,11.7 -9.5,20.5 -21.1,20.5 -11.9,0 -21.8,-8.8 -21.8,-20.5 0.1,-11.9 9.5,-20.8 21.5,-20.8 m -18.5,60.6 37.1,0 0,199.2 -37.1,0 0,-199.2 z"
         inkscape:connector-curvature="0" />
      <path
         id="path4149"
         d="m 1308.9,244.2 c -12.5,0 -24,11 -24,29.3 l 0,139.8 -36.7,0 0,-199.8 35.4,0 0,17 c 10.7,-14.9 21,-20.9 39.6,-20.9 27.1,0 45.3,25.1 45.3,50.5 l 0,153.2 -37.4,0 0,-139.4 c 0,-20.1 -11.5,-29.7 -22.2,-29.7"
         inkscape:connector-curvature="0" />
      <path
         id="path4151"
         d="m 1425.5,284.9 c 0,-24.5 5,-42.6 24.1,-42.6 18.8,0 23.4,15.2 23.4,42.6 0,23.4 -3.9,45.7 -23.4,45.7 -20.2,0 -24.1,-19.2 -24.1,-45.7 m -34.7,102.4 c 0.7,14.1 6.7,22.9 24.9,26.4 -26.3,4.5 -24.9,19.8 -24.9,29.7 0,20.9 11.9,30 41.1,30 l 49.4,0 c 36.2,0 51,-19.7 50.6,-46.5 -0.3,-26.6 -15.2,-44.9 -51.3,-44.9 l -60.4,0 0,-28.5 c -17.8,-0.1 -31.2,16.1 -29.4,33.8 m 111.3,-146.7 c 3.5,4.2 9.1,7 15.1,7.4 11,0.4 20.1,-8.1 20.5,-18.6 0.4,-11.2 -9.5,-20.6 -20.5,-20.2 -10.6,0 -19.7,9 -19.3,20.2 0,1.4 0.4,3.2 0.7,4.6 -8,-12.6 -22.4,-22.3 -48.3,-22.3 -62.4,0 -59.5,45.9 -59.5,72.5 0,24.1 -2.5,76.4 59.2,76.4 55.2,0 58.4,-47.7 58.4,-75.7 0,-11.8 0,-29.2 -6.3,-44.3 m -81.8,172.8 61.1,0 c 8.1,0 21.8,2.4 21.8,15.2 0,14.5 -13.7,15.5 -21.8,15.5 l -61.1,0 0,-30.7 z"
         inkscape:connector-curvature="0" />
      <path
         id="path4153"
         d="m 1547.8,413.3 0,-255.8 38.7,0 0,73 c 9.5,-12.2 16.9,-20.9 37.7,-20.9 30.8,0 45.9,24 45.9,47.6 l 0,156.2 -36.8,0 0,-145.7 c 0,-13.1 -5.9,-24.7 -20.1,-24.7 -19,0 -26.7,11.6 -26.7,24.7 l 0,145.6 -38.7,0 z"
         inkscape:connector-curvature="0" />
      <path
         id="path4155"
         d="m 1814,362 0,-46.1 0,-42.3 c 0,-47.1 -30.5,-64 -59.3,-64 -31.6,0 -59.7,16.9 -59.7,64 l 0,42.3 0,46.1 c 0,34.6 23.2,55.3 59.7,55.3 36.8,0 59.3,-20.8 59.3,-55.3 m -35.4,-86 0,38 0,37.7 c 0,19 -8.9,29.6 -23.9,29.6 -15.3,0 -24.2,-10.6 -24.2,-29.6 l 0,-37.7 0,-38 c 0,-16.5 4.6,-31.7 24.2,-31.7 20,0 23.9,15.2 23.9,31.7"
         inkscape:connector-curvature="0" />
      <path
         id="path4157"
         d="m 1839.2,213.6 36.7,0 0,137.9 c 0,26.1 9.1,31.8 22.8,31.8 13.8,0 23.3,-13.8 23.3,-35 l 0,-134.7 36,0 0,199.9 -35.3,0 0,-16.8 c -10.2,13.3 -24,20.7 -40.2,20.7 -30.9,0 -43.4,-23.2 -43.4,-63.8 l 0,-140 z"
         inkscape:connector-curvature="0" />
      <path
         id="path4159"
         d="m 2037.2,285.7 34.2,20.8 c 24.7,14.8 33.5,34.9 32.8,55.4 -0.7,37.8 -26.1,55.4 -62.1,55.4 -45.4,0 -63.6,-38.5 -63.6,-69.6 l 0,-3.9 36.1,0 0,1.8 c 0,17 10.6,36.3 32.4,36.3 14.8,0 32.8,-26.4 -1,-45.5 l -33.6,-20.5 c -18.2,-10.2 -29,-27.2 -29,-50.1 0,-37 28.4,-56.4 58.4,-56.4 60.3,0 58.9,64.2 58.9,64.2 l -36.7,0 c 0,0 0,-23.9 -18.3,-28.9 -18.1,-4.8 -44.4,19.8 -8.5,41"
         inkscape:connector-curvature="0" />
      <path
         id="path4161"
         d="m 2123.1,321.3 c 0,71.6 19.7,96.1 66.5,96.1 44.9,0 60.4,-33.3 60.4,-61.5 l 0,-12.7 -38.7,0 0,4.6 c 0,18.1 -2.5,32.9 -21.6,32.9 -17.4,0 -25.9,-8.5 -25.9,-36.7 l 0,-24.7 86.3,0 0,-40.6 c 0,-37.7 -16.6,-69 -61.5,-69 -49.5,0 -65.4,29.8 -65.4,71.1 l 0,40.5 z m 38.8,-42 c 0,-14.2 1.7,-37.7 25.5,-37.7 21,0 23.8,21.7 23.8,37.4 l 0,6.7 -49.3,0 0,-6.4 z"
         inkscape:connector-curvature="0" />
      <path
         id="path4163"
         d="m 256.8,505.7 c 122.6,0 222,-99.4 222,-222 0,-122.6 -99.4,-222 -222,-222 -122.7,0 -222.1,99.4 -222.1,222 -0.1,122.6 99.4,222 222.1,222 M 16.6,283.1 C 16.6,151 123.8,43.8 256,43.8 388.2,43.8 495.3,150.9 495.3,283.1 495.3,415.3 388.2,522.5 256,522.5 123.8,522.5 16.6,415.4 16.6,283.1"
         inkscape:connector-curvature="0" />
      <path
         id="path4165"
         d="m 328.2,418.9 c 15,0 27.9,-12.9 27.9,-27.9 0,-15 -12.9,-26.9 -27.9,-26.9 l -146.1,0 c -15.4,0 -28.3,11.9 -28.3,26.9 0,15 12.8,27.9 28.3,27.9 l 146.1,0 z"
         inkscape:connector-curvature="0" />
      <path
         id="path4167"
         d="m 371.4,163.2 c -19.9,0 -36,16.1 -36,36 0,11.5 5.4,21.7 13.8,28.3 l -35.8,75.2 -36.1,-74.5 c 9.2,-6.5 15.3,-17.2 15.3,-29.4 0,-19.9 -16.1,-36 -36,-36 -19.9,0 -36,16.1 -36,36 0,12.2 6,22.9 15.2,29.4 l -35.9,74.5 -36.3,-75.5 c 8.3,-6.6 13.7,-16.8 13.7,-28.2 0,-19.8 -16.1,-36 -36,-36 -19.8,0 -36,16.1 -36,36 0,19.9 16.1,36 36,36 l 2.8,-0.1 55.3,111.5 57,-111.5 0.2,0 56.2,111.5 55.4,-111.4 3.1,0.2 c 19.9,0 36,-16.1 36,-36 0.1,-19.9 -16.1,-36 -35.9,-36"
         inkscape:connector-curvature="0" />
    </g>
  </g>
</svg>
