<svg xmlns="http://www.w3.org/2000/svg" width="160" height="24" viewBox="0 0 160.00001 23.999865"><path d="M16.296 14.65l.068-.312-.182.046c-.245.063-.488.13-.732.206-.243.075-.476.15-.703.224-.2.063-.405.098-.618.104-.213.006-.407-.09-.582-.29-.2-.25-.384-.61-.553-1.079a8.91 8.91 0 0 1-.386-1.414c-.1-.475-.262-.834-.488-1.078a1.048 1.048 0 0 0-.843-.347c-.6 0-1.33.368-2.193 1.106a28.619 28.619 0 0 0-.853.788 17.193 17.193 0 0 0-.835.863c-.075.088-.15.128-.225.122-.075-.006-.125-.065-.15-.178l-.244-.675c-.1-.272-.2-.536-.3-.786-.186-.412-.407-.677-.664-.796a1.333 1.333 0 0 0-.815-.102c-.326.061-.651.218-.976.468-.323.249-.593.505-.805.768l-.544.663c-.187.233-.374.449-.562.647-.137.139-.255.28-.355.423-.1.144-.187.266-.264.365a25.227 25.227 0 0 1-.017-1.696c.012-.594.017-1.146.017-1.659.014-.238-.054-.419-.202-.544a.677.677 0 0 0-.5-.168.738.738 0 0 0-.47.168c-.142.112-.226.293-.25.543a65.32 65.32 0 0 0-.066 2.333A36.313 36.313 0 0 0 .07 16.11c.012.2.063.37.153.505.09.138.206.239.346.3a.875.875 0 0 0 .56.047.767.767 0 0 0 .497-.365c.149-.239.33-.516.544-.834.211-.319.417-.591.617-.817.25-.286.502-.57.76-.85.255-.283.484-.567.683-.854.239-.324.468-.493.694-.506.187-.037.323.026.41.187.138.3.273.67.404 1.106.13.438.278.831.44 1.181.075.136.182.24.32.309a.92.92 0 0 0 .411.104.99.99 0 0 0 .412-.094.835.835 0 0 0 .339-.28c.187-.239.39-.48.609-.724.217-.242.433-.474.646-.692.211-.219.406-.406.581-.562.175-.156.312-.266.412-.328.449-.338.78-.506.993-.506.187 0 .318.145.393.431.138.536.294 1.047.468 1.527.176.48.407.883.694 1.208.375.437.815.668 1.322.693a3.94 3.94 0 0 0 1.509-.225 13.093 13.093 0 0 1 1.57-.434l-.25-.174-.316-.812z" fill="#fefefe"/><path d="M24.925 11.46c-.026-.25-.096-.45-.211-.6a.967.967 0 0 0-.409-.319 1.151 1.151 0 0 0-.587-.036.94.94 0 0 0-.535.3c-.339.324-.704.666-1.096 1.029a51.24 51.24 0 0 1-1.208 1.077c-.413.355-.823.693-1.228 1.012-.407.318-.797.595-1.172.834-.25.161-.466.262-.646.299-.182.037-.329 0-.443-.112a1.125 1.125 0 0 1-.149-.196.615.615 0 0 1-.074-.33c0-.174.034-.374.102-.599.068-.225.161-.45.272-.675.112-.224.23-.443.355-.655.125-.213.245-.387.356-.524.187-.239.255-.454.206-.647a.676.676 0 0 0-.374-.44.892.892 0 0 0-.489-.057.742.742 0 0 0-.487.3c-.136.162-.29.382-.458.656a8.838 8.838 0 0 0-.478.901c-.15.324-.272.66-.366 1.002a3.7 3.7 0 0 0-.14.967c.013.4.09.719.235.956.144.238.29.425.442.561.424.338.876.467 1.358.385.48-.081.984-.284 1.508-.61.287-.186.602-.412.946-.674.343-.262.684-.536 1.02-.816.339-.281.656-.553.957-.815.3-.263.55-.488.749-.675a.794.794 0 0 1 .206-.15c.074-.038.145-.052.215-.038a.254.254 0 0 1 .16.094c.036.05.049.132.037.245-.013.575-.04 1.22-.085 1.94a52 52 0 0 1-.179 2.202 39.464 39.464 0 0 1-.28 2.21c-.06.385-.125.749-.194 1.095l-.062.15a3.658 3.658 0 0 1-.529.868 2.492 2.492 0 0 1-.46.433c-.178.125-.372.233-.59.294a2.285 2.285 0 0 1-.712.085 3.359 3.359 0 0 1-.807-.14 1.79 1.79 0 0 1-.2-.063l-.097-.034-.048-.016-.06-.025-.236-.099-.198-.093c-.145-.067-.29-.13-.426-.205-.136-.071-.274-.138-.403-.216a9.66 9.66 0 0 1-.735-.45c-.113-.077-.224-.151-.325-.228l-.153-.112-.142-.113a7.725 7.725 0 0 1-.485-.417 5.475 5.475 0 0 1-.34-.344c-.085-.097-.153-.173-.19-.223l-.037-.045a.079.079 0 0 1-.016-.022.645.645 0 0 0-1.111.649l.017.034.063.11c.051.085.125.2.225.338.102.138.228.298.381.471s.33.366.54.553l.158.145.17.144c.114.1.238.194.366.29.125.1.26.19.397.285.136.098.28.188.427.278.146.093.3.176.455.263.153.09.315.168.476.25l.121.06.06.03.03.016.049.021.235.102.06.028.074.027.146.053c.098.039.194.068.29.097.382.12.79.198 1.213.209.421.013.854-.043 1.253-.177.4-.13.758-.339 1.05-.574a3.74 3.74 0 0 0 .707-.752 4.45 4.45 0 0 0 .647-1.324c.042-.14.068-.257.085-.35.073-.268.136-.579.187-.94.088-.65.187-1.306.272-1.968.087-.662.157-1.315.213-1.958.053-.643.1-1.25.136-1.817.037-.57.056-1.084.056-1.547 0-.462-.011-.837-.037-1.124m72.603 5.435c-2.563.121-3.918-1.514-3.918-4.01V4.093c0-.208.17-.38.38-.38h1.704c.209 0 .38.17.38.38v8.792c0 1.208.488 1.72 1.452 1.764.204.01.366.179.366.381v1.487c0 .204-.162.37-.366.38M63.305 11.37v5.142a.38.38 0 0 1-.38.379h-1.668a.38.38 0 0 1-.379-.378v-5.197c0-.539-.183-1.818-1.783-1.818-1.067 0-1.84.742-1.84 1.816v5.198a.38.38 0 0 1-.378.379h-1.668a.38.38 0 0 1-.38-.38v-5.142c0-2.427 1.693-4.262 4.268-4.262 2.647 0 4.21 1.761 4.21 4.262m83.112-.04v5.117c0 .21-.17.38-.377.38h-1.676a.38.38 0 0 1-.38-.378v-5.172c0-.535-.183-1.807-1.788-1.807-1.07 0-1.844.738-1.844 1.807v5.172a.38.38 0 0 1-.378.378H138.3a.38.38 0 0 1-.38-.378v-5.118c0-2.416 1.696-4.238 4.277-4.238 2.655 0 4.222 1.752 4.222 4.24m-35.565.628c.055-1.623 1.18-2.728 2.581-2.728.775 0 1.438.312 1.88.846l-4.46 1.88zm7.197-1.201c-.558-2.347-2.407-3.667-4.598-3.667-2.692 0-4.868 2.25-4.868 4.997 0 2.748 2.176 4.96 4.868 4.96 2.137 0 3.716-1.072 4.404-2.714a.377.377 0 0 0-.345-.53l-1.855-.001a.376.376 0 0 0-.31.163c-.43.643-1.18.942-1.912.942-.83 0-1.55-.37-2.03-1.012l6.426-2.702a.379.379 0 0 0 .221-.437m-17.476 1.2c.057-1.621 1.182-2.727 2.582-2.727.775 0 1.438.314 1.88.847l-4.462 1.882zm7.2-1.2c-.558-2.347-2.41-3.665-4.599-3.665-2.691 0-4.867 2.25-4.867 4.996 0 2.748 2.176 4.96 4.867 4.96 2.137 0 3.716-1.072 4.405-2.714a.376.376 0 0 0 .034-.152.38.38 0 0 0-.38-.378h-1.855a.372.372 0 0 0-.311.163c-.43.643-1.18.942-1.912.942-.83 0-1.549-.37-2.03-1.014l6.427-2.7a.382.382 0 0 0 .22-.438m46.954 1.35c0-1.515-1.09-2.73-2.436-2.73-1.344 0-2.433 1.161-2.433 2.729 0 1.51 1.09 2.67 2.433 2.67 1.348 0 2.436-1.196 2.436-2.67m2.434-.02v4.26c0 3.152-1.88 5.125-4.923 5.125-2.093 0-3.905-1.098-4.48-2.823a.38.38 0 0 1 .359-.498h1.936c.13 0 .255.07.322.182.384.623 1.254.87 1.863.87 1.715 0 2.489-1.125 2.489-2.82v-.425c-.72.7-1.697 1.07-2.765 1.07-2.51 0-4.555-2.213-4.555-4.942 0-2.747 2.01-4.996 4.885-4.996 2.86 0 4.87 2.249 4.87 4.996M136.93 7.706a.38.38 0 0 0-.38-.38h-1.675a.38.38 0 0 0-.38.378v8.74c0 .209.17.38.379.38h1.676a.38.38 0 0 0 .38-.379v-8.74zm-1.216-3.993a1.22 1.22 0 0 0-1.236 1.217v.986c0 .208.17.378.378.378h1.695a.38.38 0 0 0 .379-.378V4.93c0-.683-.555-1.217-1.218-1.217m-2.226 7.614v5.117a.38.38 0 0 1-.379.378h-1.677a.379.379 0 0 1-.378-.379v-5.172c0-.532-.187-1.805-1.79-1.805-1.07 0-1.846.738-1.846 1.806v5.172c0 .21-.168.38-.378.38h-1.675a.38.38 0 0 1-.379-.379v-5.172c0-.533-.167-1.805-1.77-1.805-1.088 0-1.845.737-1.845 1.806v5.172c0 .21-.17.38-.379.38h-1.676a.38.38 0 0 1-.378-.38v-5.115c0-2.416 1.679-4.24 4.279-4.24 1.29 0 2.34.516 3.022 1.346.72-.83 1.79-1.346 3.024-1.346 2.654 0 4.222 1.752 4.222 4.24m-44.7 5.504c-2.549.119-3.896-1.508-3.896-3.993V4.091c0-.209.17-.378.378-.378h1.695a.38.38 0 0 1 .378.378v8.749c0 1.203.487 1.713 1.447 1.757a.377.377 0 0 1 .362.377v1.48c0 .202-.16.369-.362.378m-11.774-4.877c.055-1.622 1.18-2.729 2.581-2.729.774 0 1.438.315 1.88.848l-4.462 1.882zm7.197-1.2c-.556-2.347-2.407-3.667-4.598-3.667-2.691 0-4.867 2.25-4.867 4.997 0 2.748 2.176 4.96 4.867 4.96 2.137 0 3.716-1.072 4.405-2.714a.378.378 0 0 0-.346-.53h-1.855a.375.375 0 0 0-.311.164c-.43.643-1.18.941-1.912.941a2.48 2.48 0 0 1-2.03-1.012l6.426-2.7a.384.384 0 0 0 .221-.438m-15.078 4.06c-1.29 0-2.341-1.108-2.341-2.711 0-1.642 1.05-2.784 2.34-2.784 1.291 0 2.343 1.141 2.343 2.784 0 1.603-1.052 2.709-2.342 2.709m0-7.725c-2.637 0-4.776 2.156-4.776 4.996 0 2.84 2.14 4.96 4.778 4.96 2.635 0 4.793-2.12 4.793-4.96S71.768 7.09 69.132 7.09" fill="#fefefe"/><path d="M49.329 19.844a.502.502 0 0 0-.378-.829h-1.795a.494.494 0 0 0-.338.133 9.731 9.731 0 0 1-6.568 2.557c-5.35 0-9.706-4.356-9.706-9.706 0-5.354 4.356-9.71 9.706-9.71 2.61 0 4.951.937 6.596 2.631 1.629 1.682 2.484 4.026 2.403 6.6-.049 1.502-.885 3.1-2.34 3.101h-1.364c-.485 0-1.041-.149-1.041-1.308V5.85a.514.514 0 0 0-.512-.512h-1.448a.514.514 0 0 0-.514.512v7.462c0 2.288 1.282 3.6 3.516 3.6h1.363c2.832 0 4.577-2.736 4.632-5.384.063-3.209-1.043-6.14-3.114-8.254C46.357 1.163 43.453 0 40.25 0c-6.617 0-12 5.382-12 12 0 6.616 5.382 12 12 12 3.5 0 6.817-1.552 9.077-4.155M39.24 16.912a.503.503 0 0 1-.502-.502v-4.3c0-1.14-.812-1.31-1.297-1.31-.79 0-1.341.539-1.341 1.31v4.3a.503.503 0 0 1-.502.502h-1.4a.503.503 0 0 1-.503-.502v-4.253c0-2.188 1.54-3.716 3.745-3.716 2.247 0 3.7 1.456 3.7 3.714v4.255a.502.502 0 0 1-.502.502h-1.4z" fill="#fd0"/></svg>