<svg xmlns="http://www.w3.org/2000/svg" width="200" height="42.274" viewBox="0 0 200 42.273762"><path d="M4.516 42.274C2.032 42.274 0 40.242 0 37.758V4.518C0 2.032 2.032 0 4.516 0h190.968C197.968 0 200 2.033 200 4.516v33.242c0 2.484-2.032 4.516-4.516 4.516H4.516z" fill="#e20612"/><path d="M27.337 24.12l.08-.366-.215.054c-.287.074-.573.154-.86.242-.286.088-.56.176-.826.264-.235.074-.477.115-.727.122-.25.007-.478-.107-.684-.342-.235-.293-.452-.716-.65-1.267-.2-.55-.35-1.105-.454-1.663-.118-.558-.308-.98-.573-1.267-.265-.286-.595-.422-.992-.408-.705 0-1.564.433-2.578 1.3-.132.117-.286.257-.463.418-.176.163-.356.33-.54.508-.183.178-.36.353-.528.53-.17.176-.32.338-.453.485-.088.104-.176.15-.264.144-.088-.008-.147-.077-.176-.21l-.287-.793c-.117-.32-.235-.63-.352-.924-.22-.484-.48-.796-.782-.936-.3-.14-.62-.18-.958-.12-.383.072-.765.256-1.147.55-.38.293-.697.594-.946.903-.206.25-.42.51-.64.78-.22.273-.44.527-.66.76-.162.163-.3.33-.418.497-.118.17-.22.313-.31.43-.028-.63-.036-1.296-.02-1.994.014-.698.02-1.348.02-1.95.016-.28-.064-.493-.238-.64-.174-.147-.37-.213-.587-.198-.202 0-.387.065-.554.198-.166.132-.264.345-.293.638-.015.31-.03.706-.044 1.19-.016.484-.027 1.002-.034 1.553-.008.55-.004 1.11.01 1.675.016.565.038 1.083.068 1.553.014.235.074.434.18.594.105.162.242.28.407.352.196.09.415.107.657.056.242-.052.437-.195.585-.43.175-.28.388-.606.64-.98.248-.375.49-.695.725-.96.294-.337.59-.67.893-1 .3-.332.57-.666.804-1.003.28-.382.55-.58.815-.595.22-.044.38.03.483.22.162.353.32.786.474 1.3.154.514.327.977.518 1.388.088.16.213.283.375.363.16.08.323.122.484.122.162 0 .323-.037.484-.11.162-.074.294-.184.398-.33.22-.28.458-.563.716-.85.256-.285.51-.557.76-.814.248-.257.477-.477.683-.66.205-.184.367-.313.484-.386.528-.397.917-.595 1.167-.595.22 0 .374.17.463.507.162.63.345 1.23.55 1.795.206.564.478 1.038.816 1.42.44.514.958.785 1.554.815.594.03 1.186-.06 1.773-.265.47-.16.937-.297 1.4-.407.167-.04.315-.074.447-.103l-.294-.205-.372-.954z" fill="#fff"/><path d="M37.48 20.37c-.03-.293-.112-.528-.248-.704-.136-.178-.296-.3-.48-.375-.215-.073-.445-.088-.69-.043-.243.044-.453.16-.63.352-.398.382-.827.784-1.288 1.21-.463.425-.937.85-1.42 1.266-.486.418-.967.815-1.444 1.19-.478.374-.937.7-1.377.98-.295.19-.548.308-.76.352-.214.044-.386 0-.52-.132-.058-.058-.116-.136-.175-.23-.06-.096-.088-.224-.088-.387 0-.206.04-.44.12-.705.08-.265.19-.53.32-.794.132-.263.27-.52.418-.77.146-.25.287-.454.418-.616.22-.28.3-.533.242-.76-.06-.227-.206-.4-.44-.518-.163-.073-.354-.095-.574-.066-.22.03-.41.147-.573.353-.16.19-.34.448-.538.77-.198.324-.385.677-.562 1.06-.176.38-.32.775-.43 1.178-.11.406-.165.783-.165 1.136.015.47.106.845.276 1.124.17.28.342.5.52.66.498.397 1.03.548 1.596.452.565-.095 1.157-.334 1.773-.716.337-.22.708-.485 1.112-.793.403-.308.804-.63 1.2-.96.397-.33.77-.65 1.124-.957.353-.31.646-.574.88-.794.074-.074.155-.133.243-.177.087-.044.17-.06.252-.044.08.015.143.052.188.11.043.06.058.156.044.288-.015.676-.048 1.435-.1 2.28-.05.845-.12 1.707-.21 2.59-.087.88-.197 1.747-.33 2.598-.07.452-.147.88-.228 1.287l-.072.176c-.116.264-.313.65-.622 1.02-.154.185-.335.362-.542.51-.208.146-.436.273-.692.345-.256.074-.536.11-.838.1-.3-.01-.622-.07-.948-.164-.083-.022-.163-.046-.236-.075l-.114-.04-.056-.018-.07-.03-.278-.116-.233-.11c-.17-.078-.34-.153-.5-.24-.16-.084-.323-.163-.474-.254-.307-.173-.6-.348-.864-.53-.133-.09-.263-.177-.382-.267l-.18-.132-.167-.133c-.217-.172-.408-.338-.57-.49-.164-.152-.297-.29-.4-.404-.1-.115-.18-.204-.224-.263l-.043-.053c-.01-.01-.02-.028-.018-.026-.21-.36-.674-.482-1.035-.272-.36.21-.482.674-.272 1.035l.02.04.075.13c.06.1.146.234.264.397.12.162.268.35.448.554.18.203.388.43.634.65l.186.17.2.17c.134.117.28.228.43.34.147.117.306.224.467.336.16.115.33.22.502.326.172.11.353.207.535.31.18.105.37.197.56.293l.142.07.07.037.035.018.058.025.277.12.07.032.087.032.172.063c.115.045.228.08.34.114.45.14.93.232 1.427.245.495.016 1.004-.05 1.473-.208.47-.153.89-.398 1.233-.675.345-.278.62-.583.832-.883.428-.6.64-1.157.76-1.557.05-.164.08-.302.1-.412.086-.315.16-.68.22-1.105.104-.764.22-1.535.32-2.313.102-.778.184-1.546.25-2.302.063-.756.117-1.468.16-2.136.044-.67.066-1.274.066-1.818 0-.543-.013-.984-.043-1.322m85.347 6.39c-3.013.142-4.605-1.78-4.605-4.715V11.712c0-.245.2-.447.447-.447h2.002c.246 0 .447.2.447.447v10.335c0 1.42.574 2.023 1.707 2.074.24.012.43.21.43.448v1.748c0 .24-.19.435-.43.447m-40.223-6.5v6.044c0 .245-.2.446-.446.446H80.19c-.243 0-.445-.2-.445-.444V20.2c0-.633-.215-2.137-2.097-2.137-1.254 0-2.162.872-2.162 2.135v6.11c0 .245-.2.446-.445.446H73.08c-.245 0-.446-.2-.446-.446v-6.045c0-2.853 1.99-5.01 5.017-5.01 3.112 0 4.95 2.07 4.95 5.01m97.7-.047v6.015c0 .246-.2.446-.443.446h-1.97c-.245 0-.446-.2-.446-.444v-6.08c0-.628-.216-2.124-2.102-2.124-1.258 0-2.168.868-2.168 2.124v6.08c0 .244-.2.445-.445.445h-1.97c-.246 0-.446-.2-.446-.445v-6.016c0-2.84 1.993-4.982 5.028-4.982 3.12 0 4.962 2.06 4.962 4.984m-41.807.738c.064-1.907 1.386-3.207 3.034-3.207.91 0 1.69.367 2.21.995l-5.243 2.21zm8.46-1.412c-.656-2.758-2.83-4.31-5.405-4.31-3.165 0-5.723 2.645-5.723 5.874 0 3.23 2.558 5.83 5.723 5.83 2.512 0 4.368-1.26 5.177-3.19.024-.055.038-.115.038-.18 0-.245-.198-.444-.444-.444h-2.18c-.15 0-.285.075-.365.192-.505.756-1.386 1.107-2.247 1.107-.977 0-1.823-.434-2.386-1.19l7.553-3.176c.2-.084.31-.3.26-.514m-20.544 1.412c.067-1.907 1.39-3.207 3.036-3.207.91 0 1.69.37 2.21.996l-5.246 2.212zm8.464-1.412c-.656-2.758-2.832-4.308-5.406-4.308-3.164 0-5.722 2.644-5.722 5.873 0 3.23 2.558 5.83 5.722 5.83 2.512 0 4.368-1.26 5.178-3.19.024-.054.04-.115.04-.178 0-.246-.2-.445-.447-.445h-2.18c-.152 0-.287.074-.366.192-.506.756-1.387 1.107-2.248 1.107-.975 0-1.82-.434-2.385-1.192l7.554-3.174c.198-.085.31-.302.26-.514m55.195 1.586c0-1.78-1.28-3.208-2.863-3.208-1.58 0-2.86 1.364-2.86 3.207 0 1.775 1.28 3.14 2.86 3.14 1.584 0 2.863-1.407 2.863-3.14m2.862-.023v5.007c0 3.706-2.21 6.025-5.788 6.025-2.46 0-4.59-1.29-5.267-3.318-.015-.044-.023-.093-.023-.14 0-.246.2-.446.445-.446h2.277c.153 0 .3.082.378.214.452.732 1.475 1.023 2.19 1.023 2.016 0 2.926-1.323 2.926-3.315v-.5c-.845.824-1.994 1.257-3.25 1.257-2.95 0-5.354-2.6-5.354-5.808 0-3.23 2.363-5.874 5.742-5.874 3.362 0 5.724 2.644 5.724 5.874m-23.785-5.148c0-.245-.2-.446-.446-.446h-1.97c-.245 0-.446.2-.446.444V26.23c0 .245.2.446.445.446h1.97c.245 0 .446-.2.446-.445V15.957zm-1.43-4.694c-.803 0-1.453.628-1.453 1.43v1.16c0 .244.2.444.445.444h1.992c.244 0 .446-.2.446-.444v-1.16c0-.802-.652-1.43-1.432-1.43m-2.617 8.95v6.016c0 .244-.2.444-.445.444h-1.972c-.245 0-.444-.2-.444-.445v-6.08c0-.626-.22-2.122-2.104-2.122-1.257 0-2.17.867-2.17 2.123v6.08c0 .246-.198.446-.444.446h-1.97c-.244 0-.445-.2-.445-.445v-6.08c0-.626-.196-2.122-2.08-2.122-1.28 0-2.17.867-2.17 2.123v6.08c0 .246-.2.446-.445.446h-1.97c-.245 0-.445-.2-.445-.445v-6.014c0-2.84 1.974-4.984 5.03-4.984 1.517 0 2.752.606 3.553 1.582.846-.976 2.103-1.582 3.555-1.582 3.12 0 4.963 2.06 4.963 4.984m-52.547 6.47c-2.996.14-4.58-1.772-4.58-4.693V11.708c0-.245.2-.444.445-.444h1.992c.245 0 .445.2.445.444v10.285c0 1.414.572 2.014 1.7 2.065.24.01.426.205.426.444v1.74c0 .237-.187.433-.425.444M98.71 20.953c.064-1.907 1.387-3.208 3.034-3.208.91 0 1.69.37 2.21.997l-5.245 2.212zm8.46-1.412c-.654-2.758-2.83-4.31-5.405-4.31-3.164 0-5.722 2.645-5.722 5.875s2.558 5.83 5.722 5.83c2.512 0 4.368-1.26 5.178-3.19.025-.055.038-.116.038-.18 0-.244-.198-.444-.445-.444h-2.18c-.152 0-.286.076-.366.194-.506.756-1.387 1.106-2.248 1.106-.976 0-1.82-.434-2.385-1.19l7.553-3.175c.198-.085.308-.302.26-.514m-17.725 4.773c-1.517 0-2.752-1.302-2.752-3.187 0-1.93 1.235-3.273 2.752-3.273 1.517 0 2.753 1.342 2.753 3.273 0 1.885-1.236 3.184-2.753 3.184m0-9.08c-3.1 0-5.614 2.534-5.614 5.873 0 3.337 2.516 5.83 5.616 5.83 3.098 0 5.635-2.493 5.635-5.83 0-3.338-2.536-5.874-5.635-5.874" fill="#fff"/><path d="M66.168 30.226c.213-.246.186-.616-.058-.83-.108-.092-.245-.144-.386-.144h-2.11c-.148 0-.29.055-.398.156-2.086 1.91-4.834 3.006-7.72 3.006-6.29 0-11.41-5.12-11.41-11.41 0-6.293 5.12-11.413 11.41-11.413 3.068 0 5.82 1.1 7.753 3.092 1.915 1.977 2.92 4.732 2.825 7.758-.057 1.766-1.04 3.645-2.75 3.646H61.72c-.57 0-1.224-.175-1.224-1.538v-8.772c0-.332-.272-.602-.602-.602h-1.702c-.333 0-.604.27-.604.602v8.772c0 2.69 1.507 4.233 4.133 4.233h1.603c3.328 0 5.38-3.217 5.444-6.33.075-3.772-1.226-7.218-3.66-9.703-2.434-2.483-5.847-3.85-9.613-3.85-7.778 0-14.107 6.327-14.107 14.107 0 7.777 6.328 14.106 14.108 14.106 4.113 0 8.013-1.824 10.67-4.884M54.308 26.78c-.325 0-.59-.265-.59-.59v-5.055c0-1.34-.955-1.54-1.525-1.54-.928 0-1.576.633-1.576 1.54v5.055c0 .326-.266.59-.59.59H48.38c-.325 0-.59-.265-.59-.59v-5c0-2.572 1.81-4.368 4.402-4.368 2.642 0 4.35 1.712 4.35 4.366v5.002c0 .326-.265.59-.59.59h-1.646z" fill="#fd0"/></svg>